# xmcd
#
# Track frame offsets: 
#        150
#        24860
#        36662
#        57105
#        68025
#        82297
#        99612
#        117022
#        134302
#        148590
#        161485
#
# Disc length: 2446 seconds
#
# Revision: 3
# Processed by: cddbd v1.5.2PL0 Copyright (c) Steve Scherf et al.
# Submitted via: ExactAudioCopyFreeDBPlugin 1.0
#
DISCID=95098c0b
DTITLE=Notting Hillbillies - Missing... Presumed Having A Good Time
DYEAR=1990
DGENRE=
TTITLE0=Railroad Worksong
TTITLE1=Bewildered
TTITLE2=Your Own Sweet Way
TTITLE3=Run Me Down
TTITLE4=One Way Gal
TTITLE5=Blues Stay Away From Me
TTITLE6=Will You Miss Me
TTITLE7=Please Baby
TTITLE8=Weapon Of Prayer
TTITLE9=That's Where I Belong
TTITLE10=Feel Like Going Home
EXTD=
EXTT0=
EXTT1=
EXTT2=
EXTT3=
EXTT4=
EXTT5=
EXTT6=
EXTT7=
EXTT8=
EXTT9=
EXTT10=
PLAYORDER=
